<?xml version="1.0" encoding="utf-8"?>
<!-- Generator: Adobe Illustrator 26.0.1, SVG Export Plug-In . SVG Version: 6.00 Build 0)  -->
<svg version="1.1" id="Layer_1" xmlns:serif="http://www.serif.com/"
	 xmlns="http://www.w3.org/2000/svg" xmlns:xlink="http://www.w3.org/1999/xlink" x="0px" y="0px" viewBox="0 0 887 986.6"
	 style="enable-background:new 0 0 887 986.6;" xml:space="preserve">
<style type="text/css">
	.st0{fill:#FFCE34;stroke:#FFFFFF;stroke-width:0.25;stroke-miterlimit:10;}
	.st1{fill-rule:evenodd;clip-rule:evenodd;fill:#FFCE34;stroke:#FFFFFF;stroke-width:0.25;stroke-miterlimit:10;}
</style>
<g>
	<g>
		<g>
			<g transform="matrix(1,0,0,1,0,-952.362)">
				<path class="st0" d="M123.9,1213.3c-5.4,0.7-10.1,4-12.8,8.8l-81.3,135.3c-5.1,8.4-2.4,19.6,6.4,24.6c0.3,0,0.3,0.3,0.7,0.3
					l237.3,128.3c8.1,5.7,19.6,3.7,25.3-4.4c5.7-8.1,3.7-19.6-4.4-25.3c-1.4-1-2.4-1.7-3.7-2L156.7,1406l59.4-98.9L715.9,1616
					l-44.2,69.5l-271.4-147.2c-8.8-4.7-19.6-1.7-24.6,7.1c0,0.3-0.3,0.3-0.3,0.7l-174.2,345.3c-5.4,8.4-2.7,19.6,5.7,25
					c8.4,5.4,19.6,2.7,25-5.7c0.7-1,1-2,1.4-3l166-328l73.2,39.5l144.1,288.6c3.7,9.5,14.2,13.8,23.3,10.5
					c9.5-3.7,13.8-14.2,10.5-23.3c-0.3-1-1-2-1.3-3l-121.5-242.3l141.8,76.6c8.4,4.7,18.9,2,24-6.1l3.7-6.1l61.8,38.8
					c8.4,5.4,19.6,3,25-5.4c0-0.3,0.3-0.3,0.3-0.7l36.1-63.1c4.7-8.4,2-19.2-6.1-24.3l-58.7-36.8l1-1.7c5.4-8.4,3-19.6-5.4-25h-0.3
					l-614.2-379.3C132.4,1213.7,128,1212.6,123.9,1213.3z M132.7,1256.2l52.3,32.1l-60.4,100.9l-54-29.4L132.7,1256.2z
					 M735.5,1652.4l43.9,27.3l-18.2,32.1l-45.6-28.3L735.5,1652.4z"/>
			</g>
			<g>
				<path class="st0" d="M656.2,143.2c34.8-8.1,56.7-43.2,48.3-78.3c-8.1-34.4-43.2-56.4-78.3-47.9s-56.7,43.2-48.3,78.3
					C586,130.1,621.1,151.7,656.2,143.2z M631.9,40.3c21.9-5.1,44.2,8.4,49.3,30.4s-8.4,44.2-30.4,49.3
					c-21.9,5.1-44.2-8.4-49.3-30.4C596.1,67.6,609.9,45.4,631.9,40.3z"/>
				<path class="st0" d="M263,236c31.1-7.4,51.3-35.4,50-66.1l72.2-16.9c10.8,24.3,35.8,39.8,62.4,38.5l16.9,72.2
					c-28,12.5-44.2,43.5-37.1,74.2c8.1,34.8,43.2,56.7,78.3,48.3c31.1-7.4,51.3-35.4,49.9-66.1l72.2-16.9
					c10.8,24.3,35.8,39.8,62.4,38.5l16.9,72.2c-28,12.5-44.2,43.5-37.1,74.2c8.1,34.8,43.2,56.7,78.3,48.3
					c34.8-8.1,56.7-43.2,48.3-78.3c-7.4-31.1-35.4-51.3-66.1-50l-16.9-72.2c28-12.5,44.2-43.5,37.1-74.2
					c-8.1-34.8-43.2-56.7-78.3-48.3c-31,7.4-51.3,35.4-50,66.1l-72.2,16.9c-10.8-24.3-35.8-39.8-62.4-38.5l-16.9-72.2
					c28-12.5,44.2-43.5,36.8-74.2c-8.1-34.8-43.2-56.7-78.3-48.3c-31,7.4-51.3,35.4-50,66.2l-72.2,16.9
					c-12.5-28-43.5-44.2-74.3-37.1c-34.8,8.4-56.4,43.5-48.3,78.3C192.8,222.2,227.9,244.1,263,236z M773.6,463.9
					c5.1,21.9-8.4,44.2-30.4,49.3c-21.9,5.1-44.2-8.4-49.3-30.4c-5.1-21.9,8.4-44.2,30.4-49.3C746.3,428.1,768.6,441.9,773.6,463.9z
					 M678.1,236.7c21.9-5.1,44.2,8.4,49.3,30.4c5.1,21.9-8.4,44.2-30.4,49.3c-21.9,5.1-44.2-8.4-49.3-30.4
					C642.7,264.1,656.2,242.1,678.1,236.7z M530.6,313.7c5.1,21.9-8.4,44.2-30.4,49.3c-21.9,5.1-44.2-8.4-49.3-30.4
					c-5.1-21.9,8.4-44.2,30.4-49.3C503.3,278.2,525.6,291.7,530.6,313.7z M435.1,86.5c21.9-5.1,44.2,8.4,49.3,30.4
					c5.1,21.9-8.4,44.2-30.4,49.3c-21.9,5.1-44.2-8.4-49.3-30.4C399.7,113.9,413.2,91.6,435.1,86.5z M238.7,132.8
					c21.9-5.1,44.2,8.4,49.3,30.4s-8.4,44.2-30.4,49.3c-21.9,5.1-44.2-8.4-49.3-30.4C202.9,160.1,216.7,137.8,238.7,132.8z"/>
				<circle class="st1" cx="733.8" cy="473.3" r="49.6"/>
				<circle class="st1" cx="248.1" cy="172.6" r="49.6"/>
			</g>
			<path class="st0" d="M798.6,722.7c0,2-25,61.4-25,61.4l-52.3-21.3l-20.9-28.7l32.4-51l41.5,13.8L798.6,722.7z"/>
			<path class="st0" d="M134.4,289.7l72.6,25c0,0-22.3,61.1-22.3,62.8s-31.4,54.7-31.4,54.7l-53,14.2c0,0-40.5-17.2-41.5-23
				c-1-5.7,6.1-44.9,6.1-44.9l25.7-50.3L134.4,289.7z"/>
		</g>
	</g>
</g>
</svg>
